<mxfile host="app.diagrams.net" agent="Mozilla/5.0 (Windows NT 10.0; Win64; x64) AppleWebKit/537.36 (KHTML, like Gecko) Chrome/136.0.0.0 Safari/537.36" version="27.0.6">
  <diagram name="Page-1" id="JuK0nLyMnWMVUD9OGRPk">
    <mxGraphModel dx="3432" dy="1418" grid="1" gridSize="10" guides="1" tooltips="1" connect="1" arrows="1" fold="1" page="1" pageScale="1" pageWidth="827" pageHeight="1169" math="0" shadow="0">
      <root>
        <mxCell id="0" />
        <mxCell id="1" parent="0" />
        <mxCell id="KIbDW9FvNBwLlxhbpkFf-1" value="NotaFiscal" style="swimlane;fontStyle=2;align=center;verticalAlign=top;childLayout=stackLayout;horizontal=1;startSize=26;horizontalStack=0;resizeParent=1;resizeLast=0;collapsible=1;marginBottom=0;rounded=0;shadow=0;strokeWidth=1;fontSize=10;" parent="1" vertex="1">
          <mxGeometry x="90" y="50" width="170" height="350" as="geometry">
            <mxRectangle x="230" y="140" width="160" height="26" as="alternateBounds" />
          </mxGeometry>
        </mxCell>
        <mxCell id="KIbDW9FvNBwLlxhbpkFf-2" value="- code: int&#xa;- type: str&#xa;- date: str&#xa;- total_price: float&#xa;- company: Company()&#xa;- public_agency: PublicAgency()&#xa;- approved: boolean&#xa;- retentions: []&#xa;&#xa;" style="text;align=left;verticalAlign=top;spacingLeft=4;spacingRight=4;overflow=hidden;rotatable=0;points=[[0,0.5],[1,0.5]];portConstraint=eastwest;fontSize=10;" parent="KIbDW9FvNBwLlxhbpkFf-1" vertex="1">
          <mxGeometry y="26" width="170" height="104" as="geometry" />
        </mxCell>
        <mxCell id="KIbDW9FvNBwLlxhbpkFf-3" value="" style="line;html=1;strokeWidth=1;align=left;verticalAlign=middle;spacingTop=-1;spacingLeft=3;spacingRight=3;rotatable=0;labelPosition=right;points=[];portConstraint=eastwest;fontSize=10;" parent="KIbDW9FvNBwLlxhbpkFf-1" vertex="1">
          <mxGeometry y="130" width="170" height="10" as="geometry" />
        </mxCell>
        <mxCell id="KIbDW9FvNBwLlxhbpkFf-4" value="+ code()&#xa;+ type()&#xa;+ date()&#xa;+ total_price()&#xa;+ company()&#xa;+ public_agency()&#xa;+ approved()&#xa;+ retentions()&#xa;+ cod(cod)&#xa;+ type(typo)&#xa;+ total_price(total_price)&#xa;+ total_price(total_price)&#xa;+ company(company)&#xa;+ public_agency(public_agency)&#xa;+ approved(approved)&#xa;+ retentions(retention)" style="text;align=left;verticalAlign=top;spacingLeft=4;spacingRight=4;overflow=hidden;rotatable=0;points=[[0,0.5],[1,0.5]];portConstraint=eastwest;fontSize=10;" parent="KIbDW9FvNBwLlxhbpkFf-1" vertex="1">
          <mxGeometry y="140" width="170" height="200" as="geometry" />
        </mxCell>
        <mxCell id="KIbDW9FvNBwLlxhbpkFf-9" value="Empresa" style="swimlane;fontStyle=2;align=center;verticalAlign=top;childLayout=stackLayout;horizontal=1;startSize=26;horizontalStack=0;resizeParent=1;resizeLast=0;collapsible=1;marginBottom=0;rounded=0;shadow=0;strokeWidth=1;fontSize=10;" parent="1" vertex="1">
          <mxGeometry x="319" y="130" width="160" height="240" as="geometry">
            <mxRectangle x="230" y="140" width="160" height="26" as="alternateBounds" />
          </mxGeometry>
        </mxCell>
        <mxCell id="KIbDW9FvNBwLlxhbpkFf-10" value="- code: int&#xa;- razao_social:str&#xa;- invoices: []&#xa;- public_agency: PublicAgency()" style="text;align=left;verticalAlign=top;spacingLeft=4;spacingRight=4;overflow=hidden;rotatable=0;points=[[0,0.5],[1,0.5]];portConstraint=eastwest;fontSize=10;" parent="KIbDW9FvNBwLlxhbpkFf-9" vertex="1">
          <mxGeometry y="26" width="160" height="74" as="geometry" />
        </mxCell>
        <mxCell id="KIbDW9FvNBwLlxhbpkFf-11" value="" style="line;html=1;strokeWidth=1;align=left;verticalAlign=middle;spacingTop=-1;spacingLeft=3;spacingRight=3;rotatable=0;labelPosition=right;points=[];portConstraint=eastwest;fontSize=10;" parent="KIbDW9FvNBwLlxhbpkFf-9" vertex="1">
          <mxGeometry y="100" width="160" height="8" as="geometry" />
        </mxCell>
        <mxCell id="KIbDW9FvNBwLlxhbpkFf-12" value="+ code()&#xa;+ cnpj()&#xa;+ razao_social()&#xa;+ public_agency()&#xa;+ invoices()&#xa;+ cnpj(cnpj)&#xa;+ razao_social(razao_social)&#xa;+ public_agency(public_agency)&#xa;+ invoices(invoice)&#xa;" style="text;align=left;verticalAlign=top;spacingLeft=4;spacingRight=4;overflow=hidden;rotatable=0;points=[[0,0.5],[1,0.5]];portConstraint=eastwest;fontSize=10;" parent="KIbDW9FvNBwLlxhbpkFf-9" vertex="1">
          <mxGeometry y="108" width="160" height="132" as="geometry" />
        </mxCell>
        <mxCell id="KIbDW9FvNBwLlxhbpkFf-13" value="PublicAgency" style="swimlane;fontStyle=2;align=center;verticalAlign=top;childLayout=stackLayout;horizontal=1;startSize=26;horizontalStack=0;resizeParent=1;resizeLast=0;collapsible=1;marginBottom=0;rounded=0;shadow=0;strokeWidth=1;fontSize=10;" parent="1" vertex="1">
          <mxGeometry x="1490" y="20" width="170" height="376" as="geometry">
            <mxRectangle x="230" y="140" width="160" height="26" as="alternateBounds" />
          </mxGeometry>
        </mxCell>
        <mxCell id="KIbDW9FvNBwLlxhbpkFf-14" value="- code: int&#xa;- cnpj: str&#xa;- social_reason: str&#xa;- amount: float&#xa;- email: str&#xa;- phone: str&#xa;- companies: []&#xa;- invoices: []&#xa;- commitments: []" style="text;align=left;verticalAlign=top;spacingLeft=4;spacingRight=4;overflow=hidden;rotatable=0;points=[[0,0.5],[1,0.5]];portConstraint=eastwest;fontSize=10;" parent="KIbDW9FvNBwLlxhbpkFf-13" vertex="1">
          <mxGeometry y="26" width="170" height="110" as="geometry" />
        </mxCell>
        <mxCell id="KIbDW9FvNBwLlxhbpkFf-15" value="" style="line;html=1;strokeWidth=1;align=left;verticalAlign=middle;spacingTop=-1;spacingLeft=3;spacingRight=3;rotatable=0;labelPosition=right;points=[];portConstraint=eastwest;fontSize=10;" parent="KIbDW9FvNBwLlxhbpkFf-13" vertex="1">
          <mxGeometry y="136" width="170" height="14" as="geometry" />
        </mxCell>
        <mxCell id="KIbDW9FvNBwLlxhbpkFf-16" value="+ code()&#xa;+ cnpj()&#xa;+ social_reason()&#xa;+ amount()&#xa;+ email()&#xa;+ phone()&#xa;+ companies()&#xa;+ invoices()&#xa;+ commitments()&#xa;+ cnpj(cnpj)&#xa;+ social_reason(social_reason)&#xa;+ amount(amount)&#xa;+ email(email)&#xa;+ phone(phone)&#xa;+ companies(company)&#xa;+ invoices(invoices)&#xa;+ commitments(commitment)&#xa;" style="text;align=left;verticalAlign=top;spacingLeft=4;spacingRight=4;overflow=hidden;rotatable=0;points=[[0,0.5],[1,0.5]];portConstraint=eastwest;fontSize=10;" parent="KIbDW9FvNBwLlxhbpkFf-13" vertex="1">
          <mxGeometry y="150" width="170" height="184" as="geometry" />
        </mxCell>
        <mxCell id="KIbDW9FvNBwLlxhbpkFf-17" value="PublicAgencyView" style="swimlane;fontStyle=2;align=center;verticalAlign=top;childLayout=stackLayout;horizontal=1;startSize=26;horizontalStack=0;resizeParent=1;resizeLast=0;collapsible=1;marginBottom=0;rounded=0;shadow=0;strokeWidth=1;fontSize=10;" parent="1" vertex="1">
          <mxGeometry x="1680" y="280" width="130" height="110" as="geometry">
            <mxRectangle x="230" y="140" width="160" height="26" as="alternateBounds" />
          </mxGeometry>
        </mxCell>
        <mxCell id="KIbDW9FvNBwLlxhbpkFf-18" value="" style="line;html=1;strokeWidth=1;align=left;verticalAlign=middle;spacingTop=-1;spacingLeft=3;spacingRight=3;rotatable=0;labelPosition=right;points=[];portConstraint=eastwest;fontSize=10;" parent="KIbDW9FvNBwLlxhbpkFf-17" vertex="1">
          <mxGeometry y="26" width="130" height="34" as="geometry" />
        </mxCell>
        <mxCell id="KIbDW9FvNBwLlxhbpkFf-19" value="+ main_menu()&#xa;+ show_publc_agency()" style="text;align=left;verticalAlign=top;spacingLeft=4;spacingRight=4;overflow=hidden;rotatable=0;points=[[0,0.5],[1,0.5]];portConstraint=eastwest;fontSize=10;" parent="KIbDW9FvNBwLlxhbpkFf-17" vertex="1">
          <mxGeometry y="60" width="130" height="50" as="geometry" />
        </mxCell>
        <mxCell id="KIbDW9FvNBwLlxhbpkFf-20" value="CompanyView" style="swimlane;fontStyle=2;align=center;verticalAlign=top;childLayout=stackLayout;horizontal=1;startSize=26;horizontalStack=0;resizeParent=1;resizeLast=0;collapsible=1;marginBottom=0;rounded=0;shadow=0;strokeWidth=1;fontSize=10;" parent="1" vertex="1">
          <mxGeometry x="489" y="218" width="160" height="150" as="geometry">
            <mxRectangle x="230" y="140" width="160" height="26" as="alternateBounds" />
          </mxGeometry>
        </mxCell>
        <mxCell id="KIbDW9FvNBwLlxhbpkFf-21" value="" style="line;html=1;strokeWidth=1;align=left;verticalAlign=middle;spacingTop=-1;spacingLeft=3;spacingRight=3;rotatable=0;labelPosition=right;points=[];portConstraint=eastwest;fontSize=10;" parent="KIbDW9FvNBwLlxhbpkFf-20" vertex="1">
          <mxGeometry y="26" width="160" height="34" as="geometry" />
        </mxCell>
        <mxCell id="KIbDW9FvNBwLlxhbpkFf-22" value="+ main_menu()&#xa;+ form()&#xa;+ get_company()&#xa;+ show_companies()" style="text;align=left;verticalAlign=top;spacingLeft=4;spacingRight=4;overflow=hidden;rotatable=0;points=[[0,0.5],[1,0.5]];portConstraint=eastwest;fontSize=10;" parent="KIbDW9FvNBwLlxhbpkFf-20" vertex="1">
          <mxGeometry y="60" width="160" height="90" as="geometry" />
        </mxCell>
        <mxCell id="KIbDW9FvNBwLlxhbpkFf-23" value="InvoiceView" style="swimlane;fontStyle=2;align=center;verticalAlign=top;childLayout=stackLayout;horizontal=1;startSize=26;horizontalStack=0;resizeParent=1;resizeLast=0;collapsible=1;marginBottom=0;rounded=0;shadow=0;strokeWidth=1;fontSize=10;" parent="1" vertex="1">
          <mxGeometry x="-80" y="300" width="160" height="160" as="geometry">
            <mxRectangle x="230" y="140" width="160" height="26" as="alternateBounds" />
          </mxGeometry>
        </mxCell>
        <mxCell id="KIbDW9FvNBwLlxhbpkFf-24" value="" style="line;html=1;strokeWidth=1;align=left;verticalAlign=middle;spacingTop=-1;spacingLeft=3;spacingRight=3;rotatable=0;labelPosition=right;points=[];portConstraint=eastwest;fontSize=10;" parent="KIbDW9FvNBwLlxhbpkFf-23" vertex="1">
          <mxGeometry y="26" width="160" height="34" as="geometry" />
        </mxCell>
        <mxCell id="KIbDW9FvNBwLlxhbpkFf-25" value="+ main_menu()&#xa;+ form()&#xa;+ update_invoice_fields()&#xa;+ get_invoice()&#xa;+ show_invoices()" style="text;align=left;verticalAlign=top;spacingLeft=4;spacingRight=4;overflow=hidden;rotatable=0;points=[[0,0.5],[1,0.5]];portConstraint=eastwest;fontSize=10;" parent="KIbDW9FvNBwLlxhbpkFf-23" vertex="1">
          <mxGeometry y="60" width="160" height="100" as="geometry" />
        </mxCell>
        <mxCell id="KIbDW9FvNBwLlxhbpkFf-27" value="InvoiceController" style="swimlane;fontStyle=2;align=center;verticalAlign=top;childLayout=stackLayout;horizontal=1;startSize=26;horizontalStack=0;resizeParent=1;resizeLast=0;collapsible=1;marginBottom=0;rounded=0;shadow=0;strokeWidth=1;fontSize=10;" parent="1" vertex="1">
          <mxGeometry x="60" y="650" width="180" height="240" as="geometry">
            <mxRectangle x="230" y="140" width="160" height="26" as="alternateBounds" />
          </mxGeometry>
        </mxCell>
        <mxCell id="KIbDW9FvNBwLlxhbpkFf-28" value="- index_controller: IndexController()&#xa;- invoice_view: InvoiceView()&#xa;- invoices: []" style="text;align=left;verticalAlign=top;spacingLeft=4;spacingRight=4;overflow=hidden;rotatable=0;points=[[0,0.5],[1,0.5]];portConstraint=eastwest;fontSize=10;" parent="KIbDW9FvNBwLlxhbpkFf-27" vertex="1">
          <mxGeometry y="26" width="180" height="74" as="geometry" />
        </mxCell>
        <mxCell id="KIbDW9FvNBwLlxhbpkFf-29" value="" style="line;html=1;strokeWidth=1;align=left;verticalAlign=middle;spacingTop=-1;spacingLeft=3;spacingRight=3;rotatable=0;labelPosition=right;points=[];portConstraint=eastwest;fontSize=10;" parent="KIbDW9FvNBwLlxhbpkFf-27" vertex="1">
          <mxGeometry y="100" width="180" height="8" as="geometry" />
        </mxCell>
        <mxCell id="KIbDW9FvNBwLlxhbpkFf-30" value="+ open_screen()&#xa;+ get_invoices()&#xa;+ show_invoices()&#xa;+ register_invoice()&#xa;+ update_invoice()&#xa;+ approve()&#xa;+ delete_invoice()&#xa;+ back()" style="text;align=left;verticalAlign=top;spacingLeft=4;spacingRight=4;overflow=hidden;rotatable=0;points=[[0,0.5],[1,0.5]];portConstraint=eastwest;fontSize=10;" parent="KIbDW9FvNBwLlxhbpkFf-27" vertex="1">
          <mxGeometry y="108" width="180" height="132" as="geometry" />
        </mxCell>
        <mxCell id="KIbDW9FvNBwLlxhbpkFf-109" value="" style="edgeStyle=orthogonalEdgeStyle;rounded=0;orthogonalLoop=1;jettySize=auto;html=1;startArrow=diamondThin;startFill=1;entryX=0.75;entryY=1;entryDx=0;entryDy=0;startSize=11;fontSize=10;" parent="1" source="KIbDW9FvNBwLlxhbpkFf-31" target="KIbDW9FvNBwLlxhbpkFf-17" edge="1">
          <mxGeometry relative="1" as="geometry">
            <mxPoint x="1470" y="650" as="targetPoint" />
          </mxGeometry>
        </mxCell>
        <mxCell id="KIbDW9FvNBwLlxhbpkFf-31" value="PublicAgencyController" style="swimlane;fontStyle=2;align=center;verticalAlign=top;childLayout=stackLayout;horizontal=1;startSize=26;horizontalStack=0;resizeParent=1;resizeLast=0;collapsible=1;marginBottom=0;rounded=0;shadow=0;strokeWidth=1;resizeWidth=1;fontSize=10;" parent="1" vertex="1">
          <mxGeometry x="1390" y="632" width="220" height="240" as="geometry">
            <mxRectangle x="230" y="140" width="160" height="26" as="alternateBounds" />
          </mxGeometry>
        </mxCell>
        <mxCell id="KIbDW9FvNBwLlxhbpkFf-32" value="- public_agency: PublicAgency&#xa;- index_controller: indexController()&#xa;- public_agency_view: PublicAgencyView()" style="text;align=left;verticalAlign=top;spacingLeft=4;spacingRight=4;overflow=hidden;rotatable=0;points=[[0,0.5],[1,0.5]];portConstraint=eastwest;fontSize=10;resizeWidth=1;" parent="KIbDW9FvNBwLlxhbpkFf-31" vertex="1">
          <mxGeometry y="26" width="220" height="74" as="geometry" />
        </mxCell>
        <mxCell id="KIbDW9FvNBwLlxhbpkFf-33" value="" style="line;html=1;strokeWidth=1;align=left;verticalAlign=middle;spacingTop=-1;spacingLeft=3;spacingRight=3;rotatable=0;labelPosition=right;points=[];portConstraint=eastwest;resizeWidth=1;fontSize=10;" parent="KIbDW9FvNBwLlxhbpkFf-31" vertex="1">
          <mxGeometry y="100" width="220" height="8" as="geometry" />
        </mxCell>
        <mxCell id="KIbDW9FvNBwLlxhbpkFf-34" value="+ open_screen()&#xa;+ get_public_agency()&#xa;+ about()&#xa;+ list_companies()&#xa;+ list_invoices()&#xa;+ report()&#xa;+ back" style="text;align=left;verticalAlign=top;spacingLeft=4;spacingRight=4;overflow=hidden;rotatable=0;points=[[0,0.5],[1,0.5]];portConstraint=eastwest;fontSize=10;resizeWidth=1;" parent="KIbDW9FvNBwLlxhbpkFf-31" vertex="1">
          <mxGeometry y="108" width="220" height="132" as="geometry" />
        </mxCell>
        <mxCell id="KIbDW9FvNBwLlxhbpkFf-35" value="CompanyController" style="swimlane;fontStyle=2;align=center;verticalAlign=top;childLayout=stackLayout;horizontal=1;startSize=26;horizontalStack=0;resizeParent=1;resizeLast=0;collapsible=1;marginBottom=0;rounded=0;shadow=0;strokeWidth=1;fontSize=10;" parent="1" vertex="1">
          <mxGeometry x="359" y="510" width="170" height="240" as="geometry">
            <mxRectangle x="230" y="140" width="160" height="26" as="alternateBounds" />
          </mxGeometry>
        </mxCell>
        <mxCell id="KIbDW9FvNBwLlxhbpkFf-36" value="- companies: []&#xa;- index_controller: IndexController()&#xa;- company_view: CompanyView()" style="text;align=left;verticalAlign=top;spacingLeft=4;spacingRight=4;overflow=hidden;rotatable=0;points=[[0,0.5],[1,0.5]];portConstraint=eastwest;fontSize=10;" parent="KIbDW9FvNBwLlxhbpkFf-35" vertex="1">
          <mxGeometry y="26" width="170" height="54" as="geometry" />
        </mxCell>
        <mxCell id="KIbDW9FvNBwLlxhbpkFf-37" value="" style="line;html=1;strokeWidth=1;align=left;verticalAlign=middle;spacingTop=-1;spacingLeft=3;spacingRight=3;rotatable=0;labelPosition=right;points=[];portConstraint=eastwest;fontSize=10;" parent="KIbDW9FvNBwLlxhbpkFf-35" vertex="1">
          <mxGeometry y="80" width="170" height="8" as="geometry" />
        </mxCell>
        <mxCell id="KIbDW9FvNBwLlxhbpkFf-38" value="+ open_screen()&#xa;+ get_company()&#xa;+ show_companies()&#xa;+ register_company()&#xa;+ update_company()&#xa;+ delete_company()&#xa;+ view()&#xa;+ back()" style="text;align=left;verticalAlign=top;spacingLeft=4;spacingRight=4;overflow=hidden;rotatable=0;points=[[0,0.5],[1,0.5]];portConstraint=eastwest;fontSize=10;" parent="KIbDW9FvNBwLlxhbpkFf-35" vertex="1">
          <mxGeometry y="88" width="170" height="112" as="geometry" />
        </mxCell>
        <mxCell id="KIbDW9FvNBwLlxhbpkFf-105" value="" style="edgeStyle=orthogonalEdgeStyle;rounded=0;orthogonalLoop=1;jettySize=auto;html=1;startArrow=diamondThin;startFill=1;startSize=11;entryX=0.5;entryY=0;entryDx=0;entryDy=0;fontSize=10;" parent="1" source="KIbDW9FvNBwLlxhbpkFf-39" edge="1" target="KIbDW9FvNBwLlxhbpkFf-43">
          <mxGeometry relative="1" as="geometry">
            <mxPoint x="795" y="1090" as="targetPoint" />
            <Array as="points" />
          </mxGeometry>
        </mxCell>
        <mxCell id="KIbDW9FvNBwLlxhbpkFf-39" value="IndexController" style="swimlane;fontStyle=2;align=center;verticalAlign=top;childLayout=stackLayout;horizontal=1;startSize=26;horizontalStack=0;resizeParent=1;resizeLast=0;collapsible=1;marginBottom=0;rounded=0;shadow=0;strokeWidth=1;fontSize=10;" parent="1" vertex="1">
          <mxGeometry x="660" y="900" width="270" height="330" as="geometry">
            <mxRectangle x="230" y="140" width="160" height="26" as="alternateBounds" />
          </mxGeometry>
        </mxCell>
        <mxCell id="KIbDW9FvNBwLlxhbpkFf-40" value="- view: IndexView()&#xa;- public_agency_controller = PublicAgencyController()&#xa;- company_controller: CompanyController()&#xa;- invoices_controller: InvoiceController()&#xa;- commitment_controller: CommitmentController()&#xa;- retention_controller: RetentionController()&#xa;- report_controller: ReportController()" style="text;align=left;verticalAlign=top;spacingLeft=4;spacingRight=4;overflow=hidden;rotatable=0;points=[[0,0.5],[1,0.5]];portConstraint=eastwest;fontSize=10;" parent="KIbDW9FvNBwLlxhbpkFf-39" vertex="1">
          <mxGeometry y="26" width="270" height="114" as="geometry" />
        </mxCell>
        <mxCell id="KIbDW9FvNBwLlxhbpkFf-41" value="" style="line;html=1;strokeWidth=1;align=left;verticalAlign=middle;spacingTop=-1;spacingLeft=3;spacingRight=3;rotatable=0;labelPosition=right;points=[];portConstraint=eastwest;fontSize=10;" parent="KIbDW9FvNBwLlxhbpkFf-39" vertex="1">
          <mxGeometry y="140" width="270" height="8" as="geometry" />
        </mxCell>
        <mxCell id="KIbDW9FvNBwLlxhbpkFf-42" value="+ initialize()&#xa;+ public_agency()&#xa;+ companies()&#xa;+ invoices()&#xa;+ commitment()&#xa;+ retention()&#xa;+ agency_controller()&#xa;+ company_controller()&#xa;+ invoices_controller()&#xa;+ commitment_controller()&#xa;+ retention_controller&#xa;+ report_controller()&#xa;+ get_view()&#xa;+ exit()" style="text;align=left;verticalAlign=top;spacingLeft=4;spacingRight=4;overflow=hidden;rotatable=0;points=[[0,0.5],[1,0.5]];portConstraint=eastwest;fontSize=10;" parent="KIbDW9FvNBwLlxhbpkFf-39" vertex="1">
          <mxGeometry y="148" width="270" height="182" as="geometry" />
        </mxCell>
        <mxCell id="KIbDW9FvNBwLlxhbpkFf-43" value="Main" style="swimlane;fontStyle=0;align=center;verticalAlign=top;childLayout=stackLayout;horizontal=1;startSize=26;horizontalStack=0;resizeParent=1;resizeLast=0;collapsible=1;marginBottom=0;rounded=0;shadow=0;strokeWidth=1;fontSize=10;" parent="1" vertex="1">
          <mxGeometry x="715" y="1340" width="160" height="58" as="geometry">
            <mxRectangle x="130" y="380" width="160" height="26" as="alternateBounds" />
          </mxGeometry>
        </mxCell>
        <mxCell id="KIbDW9FvNBwLlxhbpkFf-44" value="+ initialize()" style="text;align=left;verticalAlign=top;spacingLeft=4;spacingRight=4;overflow=hidden;rotatable=0;points=[[0,0.5],[1,0.5]];portConstraint=eastwest;fontSize=10;" parent="KIbDW9FvNBwLlxhbpkFf-43" vertex="1">
          <mxGeometry y="26" width="160" height="26" as="geometry" />
        </mxCell>
        <mxCell id="KIbDW9FvNBwLlxhbpkFf-45" value="IndexView" style="swimlane;fontStyle=0;align=center;verticalAlign=top;childLayout=stackLayout;horizontal=1;startSize=26;horizontalStack=0;resizeParent=1;resizeLast=0;collapsible=1;marginBottom=0;rounded=0;shadow=0;strokeWidth=1;fontSize=10;" parent="1" vertex="1">
          <mxGeometry x="1060" y="1020" width="160" height="70" as="geometry">
            <mxRectangle x="130" y="380" width="160" height="26" as="alternateBounds" />
          </mxGeometry>
        </mxCell>
        <mxCell id="0EE_jmq524pXybvCe2dw-1" value="+ main_menu()&#xa;+ show_message()" style="text;align=left;verticalAlign=top;spacingLeft=4;spacingRight=4;overflow=hidden;rotatable=0;points=[[0,0.5],[1,0.5]];portConstraint=eastwest;fontSize=10;" vertex="1" parent="KIbDW9FvNBwLlxhbpkFf-45">
          <mxGeometry y="26" width="160" height="44" as="geometry" />
        </mxCell>
        <mxCell id="KIbDW9FvNBwLlxhbpkFf-53" value="" style="endArrow=open;endFill=1;endSize=12;html=1;rounded=0;entryX=0.544;entryY=1.008;entryDx=0;entryDy=0;entryPerimeter=0;exitX=0.277;exitY=0;exitDx=0;exitDy=0;exitPerimeter=0;fontSize=10;" parent="1" source="KIbDW9FvNBwLlxhbpkFf-35" target="KIbDW9FvNBwLlxhbpkFf-12" edge="1">
          <mxGeometry width="160" relative="1" as="geometry">
            <mxPoint x="389" y="470" as="sourcePoint" />
            <mxPoint x="779" y="552" as="targetPoint" />
          </mxGeometry>
        </mxCell>
        <mxCell id="KIbDW9FvNBwLlxhbpkFf-71" value="1" style="text;html=1;align=center;verticalAlign=middle;resizable=0;points=[];autosize=1;strokeColor=none;fillColor=none;fontSize=10;" parent="1" vertex="1">
          <mxGeometry x="235" y="810" width="30" height="30" as="geometry" />
        </mxCell>
        <mxCell id="KIbDW9FvNBwLlxhbpkFf-72" value="1" style="text;html=1;align=center;verticalAlign=middle;resizable=0;points=[];autosize=1;strokeColor=none;fillColor=none;fontSize=10;" parent="1" vertex="1">
          <mxGeometry x="420" y="750" width="30" height="30" as="geometry" />
        </mxCell>
        <mxCell id="KIbDW9FvNBwLlxhbpkFf-73" value="1" style="text;html=1;align=center;verticalAlign=middle;resizable=0;points=[];autosize=1;strokeColor=none;fillColor=none;resizeWidth=1;fontSize=10;" parent="1" vertex="1">
          <mxGeometry x="1480" y="872" width="30" height="30" as="geometry" />
        </mxCell>
        <mxCell id="KIbDW9FvNBwLlxhbpkFf-74" value="1" style="text;html=1;align=center;verticalAlign=middle;resizable=0;points=[];autosize=1;strokeColor=none;fillColor=none;fontSize=10;" parent="1" vertex="1">
          <mxGeometry x="1030" y="1030" width="30" height="30" as="geometry" />
        </mxCell>
        <mxCell id="KIbDW9FvNBwLlxhbpkFf-75" value="1" style="text;html=1;align=center;verticalAlign=middle;resizable=0;points=[];autosize=1;strokeColor=none;fillColor=none;fontSize=10;" parent="1" vertex="1">
          <mxGeometry x="797" y="1230" width="30" height="30" as="geometry" />
        </mxCell>
        <mxCell id="KIbDW9FvNBwLlxhbpkFf-76" value="1" style="text;html=1;align=center;verticalAlign=middle;resizable=0;points=[];autosize=1;strokeColor=none;fillColor=none;fontSize=10;" parent="1" vertex="1">
          <mxGeometry x="175" y="400" width="30" height="30" as="geometry" />
        </mxCell>
        <mxCell id="KIbDW9FvNBwLlxhbpkFf-78" value="1" style="text;html=1;align=center;verticalAlign=middle;resizable=0;points=[];autosize=1;strokeColor=none;fillColor=none;fontSize=10;" parent="1" vertex="1">
          <mxGeometry x="1780" y="398" width="30" height="30" as="geometry" />
        </mxCell>
        <mxCell id="KIbDW9FvNBwLlxhbpkFf-80" value="1" style="text;html=1;align=center;verticalAlign=middle;resizable=0;points=[];autosize=1;strokeColor=none;fillColor=none;fontSize=10;" parent="1" vertex="1">
          <mxGeometry x="1520" y="398" width="30" height="30" as="geometry" />
        </mxCell>
        <mxCell id="KIbDW9FvNBwLlxhbpkFf-82" value="1" style="text;html=1;align=center;verticalAlign=middle;resizable=0;points=[];autosize=1;strokeColor=none;fillColor=none;fontSize=10;" parent="1" vertex="1">
          <mxGeometry x="409" y="368" width="30" height="30" as="geometry" />
        </mxCell>
        <mxCell id="KIbDW9FvNBwLlxhbpkFf-87" value="1" style="text;html=1;align=center;verticalAlign=middle;resizable=0;points=[];autosize=1;strokeColor=none;fillColor=none;fontSize=10;" parent="1" vertex="1">
          <mxGeometry x="509" y="368" width="30" height="30" as="geometry" />
        </mxCell>
        <mxCell id="KIbDW9FvNBwLlxhbpkFf-103" value="" style="html=1;verticalAlign=bottom;startArrow=diamondThin;startFill=1;endArrow=block;startSize=11;curved=0;rounded=0;entryX=0;entryY=0.5;entryDx=0;entryDy=0;exitX=1.007;exitY=0.037;exitDx=0;exitDy=0;exitPerimeter=0;fontSize=10;" parent="1" target="KIbDW9FvNBwLlxhbpkFf-45" edge="1" source="KIbDW9FvNBwLlxhbpkFf-42">
          <mxGeometry width="60" relative="1" as="geometry">
            <mxPoint x="990" y="1040" as="sourcePoint" />
            <mxPoint x="1040" y="954" as="targetPoint" />
          </mxGeometry>
        </mxCell>
        <mxCell id="KIbDW9FvNBwLlxhbpkFf-110" value="" style="edgeStyle=orthogonalEdgeStyle;rounded=0;orthogonalLoop=1;jettySize=auto;html=1;startArrow=none;startFill=0;exitX=0.721;exitY=0;exitDx=0;exitDy=0;exitPerimeter=0;fontSize=10;entryX=1.022;entryY=-0.036;entryDx=0;entryDy=0;entryPerimeter=0;" parent="1" source="KIbDW9FvNBwLlxhbpkFf-31" target="KIbDW9FvNBwLlxhbpkFf-80" edge="1">
          <mxGeometry relative="1" as="geometry">
            <mxPoint x="1490" y="620" as="sourcePoint" />
            <mxPoint x="1550" y="460" as="targetPoint" />
            <Array as="points">
              <mxPoint x="1549" y="630" />
              <mxPoint x="1551" y="630" />
            </Array>
          </mxGeometry>
        </mxCell>
        <mxCell id="KIbDW9FvNBwLlxhbpkFf-113" value="" style="html=1;verticalAlign=bottom;startArrow=diamondThin;startFill=1;endArrow=block;startSize=11;curved=0;rounded=0;entryX=0.588;entryY=1.008;entryDx=0;entryDy=0;entryPerimeter=0;fontSize=10;" parent="1" edge="1" target="KIbDW9FvNBwLlxhbpkFf-34">
          <mxGeometry width="60" relative="1" as="geometry">
            <mxPoint x="928" y="949" as="sourcePoint" />
            <mxPoint x="1300" y="930" as="targetPoint" />
            <Array as="points">
              <mxPoint x="1030" y="950" />
              <mxPoint x="1520" y="950" />
            </Array>
          </mxGeometry>
        </mxCell>
        <mxCell id="KIbDW9FvNBwLlxhbpkFf-114" value="" style="html=1;verticalAlign=bottom;startArrow=diamondThin;startFill=1;endArrow=block;startSize=11;curved=0;rounded=0;entryX=0.389;entryY=0.997;entryDx=0;entryDy=0;entryPerimeter=0;exitX=-0.003;exitY=0.209;exitDx=0;exitDy=0;exitPerimeter=0;fontSize=10;" parent="1" target="KIbDW9FvNBwLlxhbpkFf-30" edge="1" source="KIbDW9FvNBwLlxhbpkFf-40">
          <mxGeometry width="60" relative="1" as="geometry">
            <mxPoint x="640" y="950" as="sourcePoint" />
            <mxPoint x="230" y="930" as="targetPoint" />
            <Array as="points">
              <mxPoint x="560" y="950" />
              <mxPoint x="130" y="950" />
            </Array>
          </mxGeometry>
        </mxCell>
        <mxCell id="KIbDW9FvNBwLlxhbpkFf-115" value="" style="html=1;verticalAlign=bottom;startArrow=diamondThin;startFill=1;endArrow=block;startSize=11;curved=0;rounded=0;endSize=6;exitX=0;exitY=0.061;exitDx=0;exitDy=0;exitPerimeter=0;fontSize=10;" parent="1" edge="1" source="KIbDW9FvNBwLlxhbpkFf-39">
          <mxGeometry width="60" relative="1" as="geometry">
            <mxPoint x="590" y="914" as="sourcePoint" />
            <mxPoint x="420" y="750" as="targetPoint" />
            <Array as="points">
              <mxPoint x="540" y="920" />
              <mxPoint x="420" y="920" />
            </Array>
          </mxGeometry>
        </mxCell>
        <mxCell id="KIbDW9FvNBwLlxhbpkFf-117" value="" style="edgeStyle=orthogonalEdgeStyle;rounded=0;orthogonalLoop=1;jettySize=auto;html=1;startArrow=none;startFill=0;entryX=0.5;entryY=1;entryDx=0;entryDy=0;exitX=0.642;exitY=-0.005;exitDx=0;exitDy=0;exitPerimeter=0;fontSize=10;" parent="1" source="KIbDW9FvNBwLlxhbpkFf-27" target="KIbDW9FvNBwLlxhbpkFf-1" edge="1">
          <mxGeometry relative="1" as="geometry">
            <mxPoint x="175" y="570" as="sourcePoint" />
            <mxPoint x="170" y="610" as="targetPoint" />
            <Array as="points" />
          </mxGeometry>
        </mxCell>
        <mxCell id="KIbDW9FvNBwLlxhbpkFf-118" value="" style="edgeStyle=orthogonalEdgeStyle;rounded=0;orthogonalLoop=1;jettySize=auto;html=1;startArrow=diamondThin;startFill=1;startSize=11;entryX=0.459;entryY=1.024;entryDx=0;entryDy=0;entryPerimeter=0;exitX=0;exitY=0.015;exitDx=0;exitDy=0;exitPerimeter=0;fontSize=10;" parent="1" source="KIbDW9FvNBwLlxhbpkFf-30" target="KIbDW9FvNBwLlxhbpkFf-25" edge="1">
          <mxGeometry relative="1" as="geometry">
            <mxPoint x="50" y="760" as="sourcePoint" />
            <mxPoint y="590" as="targetPoint" />
            <Array as="points">
              <mxPoint x="-7" y="760" />
            </Array>
          </mxGeometry>
        </mxCell>
        <mxCell id="KIbDW9FvNBwLlxhbpkFf-119" value="1" style="text;html=1;align=center;verticalAlign=middle;resizable=0;points=[];autosize=1;strokeColor=none;fillColor=none;fontSize=10;" parent="1" vertex="1">
          <mxGeometry y="460" width="30" height="30" as="geometry" />
        </mxCell>
        <mxCell id="KIbDW9FvNBwLlxhbpkFf-122" value="" style="html=1;verticalAlign=bottom;startArrow=diamondThin;startFill=0;endArrow=block;startSize=11;curved=0;rounded=0;exitX=1.022;exitY=0.994;exitDx=0;exitDy=0;exitPerimeter=0;entryX=0.996;entryY=0.208;entryDx=0;entryDy=0;entryPerimeter=0;fontSize=10;" parent="1" source="KIbDW9FvNBwLlxhbpkFf-128" target="KIbDW9FvNBwLlxhbpkFf-10" edge="1">
          <mxGeometry width="60" relative="1" as="geometry">
            <mxPoint x="1140" y="170" as="sourcePoint" />
            <mxPoint x="840" y="170" as="targetPoint" />
            <Array as="points" />
          </mxGeometry>
        </mxCell>
        <mxCell id="KIbDW9FvNBwLlxhbpkFf-123" value="" style="html=1;verticalAlign=bottom;startArrow=diamondThin;startFill=0;endArrow=block;startSize=11;curved=0;rounded=0;exitX=0;exitY=0.5;exitDx=0;exitDy=0;entryX=1;entryY=0.944;entryDx=0;entryDy=0;entryPerimeter=0;fontSize=10;" parent="1" source="KIbDW9FvNBwLlxhbpkFf-10" target="KIbDW9FvNBwLlxhbpkFf-2" edge="1">
          <mxGeometry width="60" relative="1" as="geometry">
            <mxPoint x="560" y="190" as="sourcePoint" />
            <mxPoint x="370" y="195" as="targetPoint" />
            <Array as="points" />
          </mxGeometry>
        </mxCell>
        <mxCell id="KIbDW9FvNBwLlxhbpkFf-125" value="1" style="text;html=1;align=center;verticalAlign=middle;resizable=0;points=[];autosize=1;strokeColor=none;fillColor=none;fontSize=10;" parent="1" vertex="1">
          <mxGeometry x="1575" y="20" width="30" height="30" as="geometry" />
        </mxCell>
        <mxCell id="KIbDW9FvNBwLlxhbpkFf-127" value="1...n" style="text;html=1;align=center;verticalAlign=middle;resizable=0;points=[];autosize=1;strokeColor=none;fillColor=none;fontSize=10;" parent="1" vertex="1">
          <mxGeometry x="479" y="138" width="40" height="30" as="geometry" />
        </mxCell>
        <mxCell id="KIbDW9FvNBwLlxhbpkFf-128" value="1" style="text;html=1;align=center;verticalAlign=middle;resizable=0;points=[];autosize=1;strokeColor=none;fillColor=none;fontSize=10;" parent="1" vertex="1">
          <mxGeometry x="1460" y="140" width="30" height="30" as="geometry" />
        </mxCell>
        <mxCell id="KIbDW9FvNBwLlxhbpkFf-129" value="1...n" style="text;html=1;align=center;verticalAlign=middle;resizable=0;points=[];autosize=1;strokeColor=none;fillColor=none;fontSize=10;" parent="1" vertex="1">
          <mxGeometry x="265" y="160" width="40" height="30" as="geometry" />
        </mxCell>
        <mxCell id="KIbDW9FvNBwLlxhbpkFf-132" value="" style="html=1;verticalAlign=bottom;startArrow=diamondThin;startFill=0;endArrow=block;startSize=11;curved=0;rounded=0;entryX=1.009;entryY=0.023;entryDx=0;entryDy=0;entryPerimeter=0;fontSize=10;exitX=0;exitY=0.294;exitDx=0;exitDy=0;exitPerimeter=0;" parent="1" source="KIbDW9FvNBwLlxhbpkFf-14" edge="1" target="KIbDW9FvNBwLlxhbpkFf-2">
          <mxGeometry width="60" relative="1" as="geometry">
            <mxPoint x="1400" y="50" as="sourcePoint" />
            <mxPoint x="310" y="80" as="targetPoint" />
            <Array as="points" />
          </mxGeometry>
        </mxCell>
        <mxCell id="KIbDW9FvNBwLlxhbpkFf-116" value="" style="html=1;verticalAlign=bottom;startArrow=diamondThin;startFill=1;endArrow=block;startSize=11;curved=0;rounded=0;exitX=0.887;exitY=-0.006;exitDx=0;exitDy=0;exitPerimeter=0;entryX=0.128;entryY=1.019;entryDx=0;entryDy=0;entryPerimeter=0;fontSize=10;" parent="1" target="KIbDW9FvNBwLlxhbpkFf-22" edge="1" source="KIbDW9FvNBwLlxhbpkFf-35">
          <mxGeometry width="60" relative="1" as="geometry">
            <mxPoint x="529" y="458" as="sourcePoint" />
            <mxPoint x="529" y="378" as="targetPoint" />
            <Array as="points" />
          </mxGeometry>
        </mxCell>
        <mxCell id="0EE_jmq524pXybvCe2dw-2" value="CommitmentController" style="swimlane;fontStyle=2;align=center;verticalAlign=top;childLayout=stackLayout;horizontal=1;startSize=26;horizontalStack=0;resizeParent=1;resizeLast=0;collapsible=1;marginBottom=0;rounded=0;shadow=0;strokeWidth=1;fontSize=10;" vertex="1" parent="1">
          <mxGeometry x="1119" y="510" width="170" height="240" as="geometry">
            <mxRectangle x="230" y="140" width="160" height="26" as="alternateBounds" />
          </mxGeometry>
        </mxCell>
        <mxCell id="0EE_jmq524pXybvCe2dw-3" value="- commitments_view: CommitmentView()&#xa;- index_controller: IndexController()&#xa;- commitments: []" style="text;align=left;verticalAlign=top;spacingLeft=4;spacingRight=4;overflow=hidden;rotatable=0;points=[[0,0.5],[1,0.5]];portConstraint=eastwest;fontSize=8;" vertex="1" parent="0EE_jmq524pXybvCe2dw-2">
          <mxGeometry y="26" width="170" height="74" as="geometry" />
        </mxCell>
        <mxCell id="0EE_jmq524pXybvCe2dw-4" value="" style="line;html=1;strokeWidth=1;align=left;verticalAlign=middle;spacingTop=-1;spacingLeft=3;spacingRight=3;rotatable=0;labelPosition=right;points=[];portConstraint=eastwest;fontSize=10;" vertex="1" parent="0EE_jmq524pXybvCe2dw-2">
          <mxGeometry y="100" width="170" height="8" as="geometry" />
        </mxCell>
        <mxCell id="0EE_jmq524pXybvCe2dw-5" value="+ open_screen()&#xa;+ get_commitment()&#xa;+ show_commitment()&#xa;+ register_commitment()&#xa;+ update_commitment()&#xa;+ delete_cmmitment()&#xa;+ back()" style="text;align=left;verticalAlign=top;spacingLeft=4;spacingRight=4;overflow=hidden;rotatable=0;points=[[0,0.5],[1,0.5]];portConstraint=eastwest;fontSize=10;" vertex="1" parent="0EE_jmq524pXybvCe2dw-2">
          <mxGeometry y="108" width="170" height="132" as="geometry" />
        </mxCell>
        <mxCell id="0EE_jmq524pXybvCe2dw-7" value="RetentionController" style="swimlane;fontStyle=2;align=center;verticalAlign=top;childLayout=stackLayout;horizontal=1;startSize=26;horizontalStack=0;resizeParent=1;resizeLast=0;collapsible=1;marginBottom=0;rounded=0;shadow=0;strokeWidth=1;fontSize=10;" vertex="1" parent="1">
          <mxGeometry x="879" y="510" width="170" height="240" as="geometry">
            <mxRectangle x="230" y="140" width="160" height="26" as="alternateBounds" />
          </mxGeometry>
        </mxCell>
        <mxCell id="0EE_jmq524pXybvCe2dw-8" value="- retention_view: RetentionView()&#xa;- index_controller: IndexController()&#xa;- retentions: []" style="text;align=left;verticalAlign=top;spacingLeft=4;spacingRight=4;overflow=hidden;rotatable=0;points=[[0,0.5],[1,0.5]];portConstraint=eastwest;fontSize=10;" vertex="1" parent="0EE_jmq524pXybvCe2dw-7">
          <mxGeometry y="26" width="170" height="74" as="geometry" />
        </mxCell>
        <mxCell id="0EE_jmq524pXybvCe2dw-9" value="" style="line;html=1;strokeWidth=1;align=left;verticalAlign=middle;spacingTop=-1;spacingLeft=3;spacingRight=3;rotatable=0;labelPosition=right;points=[];portConstraint=eastwest;fontSize=10;" vertex="1" parent="0EE_jmq524pXybvCe2dw-7">
          <mxGeometry y="100" width="170" height="8" as="geometry" />
        </mxCell>
        <mxCell id="0EE_jmq524pXybvCe2dw-10" value="+ open_screen()&#xa;+ get_retention()&#xa;+ show_retention()&#xa;+ update_retentions()&#xa;+ view()&#xa;+ back()" style="text;align=left;verticalAlign=top;spacingLeft=4;spacingRight=4;overflow=hidden;rotatable=0;points=[[0,0.5],[1,0.5]];portConstraint=eastwest;fontSize=10;" vertex="1" parent="0EE_jmq524pXybvCe2dw-7">
          <mxGeometry y="108" width="170" height="132" as="geometry" />
        </mxCell>
        <mxCell id="0EE_jmq524pXybvCe2dw-11" value="1" style="text;html=1;align=center;verticalAlign=middle;resizable=0;points=[];autosize=1;strokeColor=none;fillColor=none;fontSize=10;" vertex="1" parent="1">
          <mxGeometry x="710" y="755" width="30" height="30" as="geometry" />
        </mxCell>
        <mxCell id="0EE_jmq524pXybvCe2dw-13" value="ReportController" style="swimlane;fontStyle=2;align=center;verticalAlign=top;childLayout=stackLayout;horizontal=1;startSize=26;horizontalStack=0;resizeParent=1;resizeLast=0;collapsible=1;marginBottom=0;rounded=0;shadow=0;strokeWidth=1;fontSize=10;" vertex="1" parent="1">
          <mxGeometry x="649" y="510" width="170" height="240" as="geometry">
            <mxRectangle x="230" y="140" width="160" height="26" as="alternateBounds" />
          </mxGeometry>
        </mxCell>
        <mxCell id="0EE_jmq524pXybvCe2dw-14" value="- orgao_pub: OrgaoPublico()&#xa;- controlador_ind: Controlador&#xa;Indice()&#xa;&#xa;- tela_OP: Tela_OP()" style="text;align=left;verticalAlign=top;spacingLeft=4;spacingRight=4;overflow=hidden;rotatable=0;points=[[0,0.5],[1,0.5]];portConstraint=eastwest;fontSize=10;" vertex="1" parent="0EE_jmq524pXybvCe2dw-13">
          <mxGeometry y="26" width="170" height="74" as="geometry" />
        </mxCell>
        <mxCell id="0EE_jmq524pXybvCe2dw-15" value="" style="line;html=1;strokeWidth=1;align=left;verticalAlign=middle;spacingTop=-1;spacingLeft=3;spacingRight=3;rotatable=0;labelPosition=right;points=[];portConstraint=eastwest;fontSize=10;" vertex="1" parent="0EE_jmq524pXybvCe2dw-13">
          <mxGeometry y="100" width="170" height="8" as="geometry" />
        </mxCell>
        <mxCell id="0EE_jmq524pXybvCe2dw-16" value="+ abrir_tela()&#xa;+ get_OP()&#xa;+ info_sobre()&#xa;+ listar_empresas()&#xa;+ listar_NFs()&#xa;+ retornar()" style="text;align=left;verticalAlign=top;spacingLeft=4;spacingRight=4;overflow=hidden;rotatable=0;points=[[0,0.5],[1,0.5]];portConstraint=eastwest;fontSize=10;" vertex="1" parent="0EE_jmq524pXybvCe2dw-13">
          <mxGeometry y="108" width="170" height="132" as="geometry" />
        </mxCell>
        <mxCell id="0EE_jmq524pXybvCe2dw-18" value="" style="endArrow=open;endFill=1;endSize=12;html=1;rounded=0;exitX=0.128;exitY=-0.001;exitDx=0;exitDy=0;exitPerimeter=0;entryX=0.261;entryY=0.997;entryDx=0;entryDy=0;entryPerimeter=0;startArrow=diamondThin;startFill=1;startSize=11;fontSize=10;" edge="1" parent="1" source="KIbDW9FvNBwLlxhbpkFf-39" target="0EE_jmq524pXybvCe2dw-16">
          <mxGeometry width="160" relative="1" as="geometry">
            <mxPoint x="700" y="830" as="sourcePoint" />
            <mxPoint x="860" y="830" as="targetPoint" />
          </mxGeometry>
        </mxCell>
        <mxCell id="0EE_jmq524pXybvCe2dw-19" value="" style="endArrow=open;endFill=1;endSize=12;html=1;rounded=0;exitX=0.128;exitY=-0.001;exitDx=0;exitDy=0;exitPerimeter=0;entryX=0.077;entryY=1.014;entryDx=0;entryDy=0;entryPerimeter=0;startArrow=diamondThin;startFill=1;startSize=11;fontSize=10;" edge="1" parent="1" target="0EE_jmq524pXybvCe2dw-10">
          <mxGeometry width="160" relative="1" as="geometry">
            <mxPoint x="892" y="900" as="sourcePoint" />
            <mxPoint x="892" y="760" as="targetPoint" />
          </mxGeometry>
        </mxCell>
        <mxCell id="0EE_jmq524pXybvCe2dw-20" value="" style="endArrow=open;endFill=1;endSize=12;html=1;rounded=0;exitX=0.128;exitY=-0.001;exitDx=0;exitDy=0;exitPerimeter=0;entryX=0.398;entryY=1.027;entryDx=0;entryDy=0;entryPerimeter=0;startArrow=diamondThin;startFill=1;startSize=11;fontSize=10;" edge="1" parent="1" target="0EE_jmq524pXybvCe2dw-5">
          <mxGeometry width="160" relative="1" as="geometry">
            <mxPoint x="912" y="900" as="sourcePoint" />
            <mxPoint x="910" y="750" as="targetPoint" />
            <Array as="points">
              <mxPoint x="912" y="800" />
              <mxPoint x="1187" y="800" />
            </Array>
          </mxGeometry>
        </mxCell>
        <mxCell id="0EE_jmq524pXybvCe2dw-21" value="1" style="text;html=1;align=center;verticalAlign=middle;resizable=0;points=[];autosize=1;strokeColor=none;fillColor=none;fontSize=10;" vertex="1" parent="1">
          <mxGeometry x="900" y="755" width="30" height="30" as="geometry" />
        </mxCell>
        <mxCell id="0EE_jmq524pXybvCe2dw-22" value="1" style="text;html=1;align=center;verticalAlign=middle;resizable=0;points=[];autosize=1;strokeColor=none;fillColor=none;fontSize=10;" vertex="1" parent="1">
          <mxGeometry x="1190" y="755" width="30" height="30" as="geometry" />
        </mxCell>
        <mxCell id="0EE_jmq524pXybvCe2dw-23" value="ReportView" style="swimlane;fontStyle=2;align=center;verticalAlign=top;childLayout=stackLayout;horizontal=1;startSize=26;horizontalStack=0;resizeParent=1;resizeLast=0;collapsible=1;marginBottom=0;rounded=0;shadow=0;strokeWidth=1;fontSize=10;" vertex="1" parent="1">
          <mxGeometry x="654" y="220" width="160" height="150" as="geometry">
            <mxRectangle x="230" y="140" width="160" height="26" as="alternateBounds" />
          </mxGeometry>
        </mxCell>
        <mxCell id="0EE_jmq524pXybvCe2dw-24" value="" style="line;html=1;strokeWidth=1;align=left;verticalAlign=middle;spacingTop=-1;spacingLeft=3;spacingRight=3;rotatable=0;labelPosition=right;points=[];portConstraint=eastwest;fontSize=10;" vertex="1" parent="0EE_jmq524pXybvCe2dw-23">
          <mxGeometry y="26" width="160" height="34" as="geometry" />
        </mxCell>
        <mxCell id="0EE_jmq524pXybvCe2dw-25" value="+ menu_pcp()&#xa;+ form()&#xa;+get_empresa()&#xa;+ mostrar_empresas()&#xa;+ mostrar_msg()" style="text;align=left;verticalAlign=top;spacingLeft=4;spacingRight=4;overflow=hidden;rotatable=0;points=[[0,0.5],[1,0.5]];portConstraint=eastwest;fontSize=10;" vertex="1" parent="0EE_jmq524pXybvCe2dw-23">
          <mxGeometry y="60" width="160" height="90" as="geometry" />
        </mxCell>
        <mxCell id="0EE_jmq524pXybvCe2dw-26" value="" style="html=1;verticalAlign=bottom;startArrow=diamondThin;startFill=1;endArrow=block;startSize=11;curved=0;rounded=0;exitX=0.887;exitY=-0.006;exitDx=0;exitDy=0;exitPerimeter=0;entryX=0.128;entryY=1.019;entryDx=0;entryDy=0;entryPerimeter=0;fontSize=10;" edge="1" parent="1">
          <mxGeometry width="60" relative="1" as="geometry">
            <mxPoint x="734.44" y="510" as="sourcePoint" />
            <mxPoint x="733.44" y="371" as="targetPoint" />
            <Array as="points" />
          </mxGeometry>
        </mxCell>
      </root>
    </mxGraphModel>
  </diagram>
</mxfile>
